<?xml version="1.0" standalone="no"?>
<!DOCTYPE svg PUBLIC "-//W3C//DTD SVG 20010904//EN"
 "http://www.w3.org/TR/2001/REC-SVG-20010904/DTD/svg10.dtd">
<svg version="1.0" xmlns="http://www.w3.org/2000/svg"
 width="188.000000pt" height="268.000000pt" viewBox="0 0 188.000000 268.000000"
 preserveAspectRatio="xMidYMid meet">

<g transform="translate(0.000000,268.000000) scale(0.100000,-0.100000)"
fill="#000000" stroke="none">
<path d="M940 1784 l0 -886 47 40 c124 105 282 284 375 426 177 269 269 543
293 882 l7 90 -129 47 c-145 53 -375 163 -499 237 -45 28 -85 50 -88 50 -3 0
-6 -399 -6 -886z"/>
<path d="M615 2138 c-38 -16 -135 -48 -215 -70 -80 -22 -147 -42 -149 -44 -6
-5 41 -185 72 -274 71 -204 215 -442 379 -625 4 -5 8 228 8 518 0 416 -3 527
-12 526 -7 -1 -44 -14 -83 -31z"/>
<path d="M541 685 c0 -11 3 -14 6 -7 2 6 14 12 25 12 18 0 19 -6 16 -65 -3
-59 -1 -65 17 -65 18 0 20 6 17 65 -3 59 -2 65 16 65 11 0 23 -6 25 -12 3 -7
6 -4 6 7 1 18 -5 20 -64 20 -59 0 -65 -2 -64 -20z"/>
<path d="M733 698 c-48 -23 -51 -103 -4 -127 82 -44 157 55 87 116 -29 25 -49
28 -83 11z m51 -4 c8 -3 20 -21 26 -40 10 -29 9 -39 -4 -59 -18 -27 -47 -33
-64 -12 -21 25 -25 66 -8 92 17 26 24 29 50 19z"/>
<path d="M1216 689 c-35 -27 -37 -90 -4 -113 35 -25 83 -20 107 10 12 15 21
33 21 40 0 26 -23 62 -47 73 -34 16 -47 14 -77 -10z m64 1 c24 -13 36 -71 21
-99 -14 -24 -53 -28 -71 -6 -16 20 -17 80 -1 99 16 19 25 20 51 6z"/>
<path d="M888 630 c-3 -65 -2 -70 18 -70 17 0 20 5 17 33 l-4 32 29 -32 c16
-18 38 -33 49 -33 19 0 17 4 -13 37 -41 44 -42 55 -8 82 15 12 22 21 15 21 -6
0 -25 -15 -41 -32 l-29 -33 -1 33 c0 21 -5 32 -14 32 -11 0 -15 -18 -18 -70z"/>
<path d="M1065 663 c27 -40 33 -88 13 -96 -7 -3 3 -5 22 -5 19 0 29 2 23 5
-21 8 -15 58 12 97 18 27 21 36 10 36 -8 0 -15 -6 -15 -14 0 -7 -6 -19 -13
-25 -11 -8 -17 -5 -27 14 -7 14 -22 25 -32 25 -17 0 -16 -3 7 -37z"/>
<path d="M18 370 c3 -38 -1 -66 -8 -75 -10 -13 -8 -15 16 -15 22 0 25 3 16 12
-7 7 -12 30 -11 52 l1 41 24 -50 c13 -27 27 -49 31 -48 4 0 17 23 30 50 l23
48 -3 -53 c-2 -47 0 -52 19 -52 20 0 20 3 10 56 -7 42 -7 61 3 76 11 17 10 19
-10 16 -16 -2 -27 -17 -42 -56 -11 -29 -23 -49 -27 -45 -4 4 -15 29 -25 56
-11 29 -24 47 -34 47 -13 0 -15 -10 -13 -60z"/>
<path d="M225 355 l0 -75 46 0 c32 0 49 5 53 15 6 18 -5 20 -21 4 -18 -18 -43
-2 -43 27 0 21 4 25 20 21 12 -3 20 0 20 8 0 8 -8 11 -20 8 -17 -5 -20 0 -20
26 0 32 16 41 38 19 9 -9 12 -8 12 5 0 13 -9 17 -42 17 l-43 0 0 -75z"/>
<path d="M350 413 c0 -13 3 -14 12 -5 7 7 18 12 26 12 11 0 13 -16 10 -70 -3
-64 -1 -70 17 -70 18 0 20 5 17 61 -4 67 7 91 33 69 12 -10 15 -10 15 4 0 13
-12 16 -65 16 -55 0 -65 -3 -65 -17z"/>
<path d="M518 419 c15 -16 16 -111 0 -127 -9 -9 -5 -12 21 -12 28 0 31 2 22
14 -15 18 -10 118 6 123 6 2 16 -5 22 -16 8 -15 7 -23 -5 -35 -14 -15 -14 -19
6 -51 14 -22 29 -35 43 -35 l20 0 -20 23 c-31 35 -35 45 -21 67 21 33 0 54
-58 58 -39 3 -47 1 -36 -9z"/>
<path d="M690 410 c-30 -30 -27 -83 6 -109 35 -28 69 -26 99 4 32 31 32 69 0
100 -30 31 -77 33 -105 5z m84 -12 c29 -40 12 -108 -26 -108 -25 0 -48 34 -48
70 0 59 44 82 74 38z"/>
<path d="M858 421 c10 -6 13 -27 10 -75 -3 -61 -1 -66 17 -66 18 0 20 6 17 70
-4 69 2 82 26 58 16 -16 15 -33 -4 -52 -8 -9 -11 -16 -5 -16 13 0 51 37 51 49
0 24 -34 41 -78 41 -30 0 -42 -3 -34 -9z"/>
<path d="M1021 404 c-28 -35 -26 -69 4 -99 30 -30 64 -32 99 -4 54 42 19 129
-51 129 -22 0 -38 -8 -52 -26z m81 -1 c33 -30 17 -113 -22 -113 -39 0 -63 67
-40 111 13 23 37 24 62 2z"/>
<path d="M1188 421 c10 -6 13 -27 10 -75 l-3 -66 46 0 c34 0 49 5 53 16 10 26
7 28 -14 9 -36 -33 -52 -13 -48 60 l3 65 -30 0 c-20 0 -26 -3 -17 -9z"/>
<path d="M1338 418 c7 -7 12 -35 12 -63 0 -28 -5 -56 -12 -63 -9 -9 -4 -12 23
-11 18 0 28 3 22 6 -9 3 -13 27 -13 68 0 41 4 65 13 68 6 3 -4 6 -22 6 -27 1
-32 -2 -23 -11z"/>
<path d="M1420 414 c0 -13 3 -14 15 -4 8 6 19 9 25 5 15 -9 13 -122 -2 -128
-7 -3 1 -6 17 -6 l30 -1 -3 70 c-4 73 -2 76 28 60 16 -8 18 -8 14 5 -9 23
-124 22 -124 -1z"/>
<path d="M1613 418 c-6 -7 -16 -31 -23 -53 -7 -22 -19 -50 -26 -62 -14 -22
-13 -23 13 -23 18 0 24 3 15 8 -22 14 -3 43 27 40 20 -2 26 -8 25 -25 0 -19 5
-23 29 -23 28 0 29 1 15 18 -8 9 -23 40 -33 67 -21 61 -29 70 -42 53z m17 -60
c0 -5 -7 -8 -15 -8 -15 0 -20 21 -8 33 7 7 23 -11 23 -25z"/>
<path d="M1728 423 c8 -3 12 -27 12 -68 0 -41 -4 -65 -12 -68 -7 -3 0 -6 17
-6 22 -1 26 2 17 11 -7 7 -12 32 -12 57 l0 46 55 -60 54 -60 1 72 c0 47 4 73
13 76 6 3 -1 6 -17 6 -23 1 -27 -2 -18 -11 7 -7 12 -30 12 -52 l0 -41 -46 53
c-30 34 -53 52 -67 51 -12 0 -16 -3 -9 -6z"/>
<path d="M240 88 c4 -55 8 -64 32 -77 21 -12 31 -13 52 -3 22 10 26 18 26 57
0 26 5 55 10 66 9 17 7 19 -17 18 -15 0 -22 -3 -15 -6 7 -3 12 -25 12 -58 0
-43 -4 -56 -19 -64 -13 -7 -23 -6 -36 3 -14 10 -16 24 -14 69 4 52 2 57 -16
57 -18 0 -20 -5 -15 -62z"/>
<path d="M408 141 c10 -6 13 -26 10 -70 -2 -40 1 -61 8 -61 7 0 10 18 7 52
l-4 53 55 -60 56 -60 0 72 c0 47 4 73 13 76 6 3 -1 6 -18 6 -20 0 -25 -2 -17
-8 8 -5 12 -23 10 -49 l-3 -41 -40 49 c-28 35 -47 49 -65 49 -18 1 -21 -2 -12
-8z"/>
<path d="M598 141 c10 -6 13 -26 10 -70 -2 -49 0 -61 12 -61 12 0 14 12 12 61
-3 44 0 64 10 70 8 6 1 9 -22 9 -23 0 -30 -3 -22 -9z"/>
<path d="M688 137 c6 -7 20 -38 32 -69 12 -32 25 -60 29 -63 5 -2 19 23 31 58
13 34 28 68 33 75 7 9 4 12 -12 12 -12 0 -19 -4 -16 -10 7 -12 -15 -90 -26
-90 -10 0 -39 87 -31 94 3 3 -7 6 -23 6 -21 0 -25 -3 -17 -13z"/>
<path d="M858 80 l4 -70 49 0 c40 0 49 3 48 18 0 10 -3 12 -6 5 -2 -7 -18 -13
-34 -13 -26 0 -29 4 -29 30 0 31 17 39 38 18 9 -9 12 -7 12 9 0 16 -5 19 -25
15 -22 -4 -25 -1 -25 22 0 28 26 36 48 14 9 -9 12 -8 12 5 0 14 -9 17 -47 17
l-48 0 3 -70z"/>
<path d="M1005 80 c0 -60 3 -70 18 -70 14 0 17 10 17 65 0 49 3 65 14 65 21 0
28 -31 12 -49 -14 -15 -13 -20 4 -49 12 -20 28 -32 41 -32 20 0 20 1 -5 31
-24 28 -25 32 -11 51 23 34 3 58 -48 58 l-42 0 0 -70z"/>
<path d="M1177 144 c-16 -17 -5 -51 25 -75 28 -23 30 -29 19 -43 -17 -20 -25
-20 -45 0 -14 13 -16 13 -16 0 0 -20 32 -29 64 -17 37 15 35 53 -4 81 -16 12
-30 28 -30 36 0 17 31 18 49 2 11 -11 13 -10 9 2 -5 16 -59 26 -71 14z"/>
<path d="M1298 80 c3 -57 7 -70 20 -70 14 0 16 9 14 61 -3 44 0 64 10 70 9 6
3 9 -17 9 l-30 0 3 -70z"/>
<path d="M1381 133 c0 -11 3 -13 6 -5 2 6 14 12 25 12 18 0 19 -6 16 -65 -2
-53 0 -65 12 -65 12 0 15 14 15 62 0 59 1 63 23 62 12 0 22 3 22 8 0 4 -27 8
-60 8 -51 0 -60 -3 -59 -17z"/>
<path d="M1556 110 c19 -28 25 -48 22 -70 -4 -24 -1 -30 14 -30 14 0 18 8 18
38 0 35 20 77 44 94 6 4 1 8 -12 8 -13 0 -21 -4 -18 -9 3 -4 -1 -17 -9 -27
-13 -19 -14 -19 -28 1 -9 11 -13 23 -11 27 3 5 -6 8 -21 8 l-25 0 26 -40z"/>
</g>
</svg>
