<?xml version="1.0" standalone="no"?>
<!DOCTYPE svg PUBLIC "-//W3C//DTD SVG 20010904//EN"
 "http://www.w3.org/TR/2001/REC-SVG-20010904/DTD/svg10.dtd">
<svg version="1.0" xmlns="http://www.w3.org/2000/svg"
 width="250.000000pt" height="272.000000pt" viewBox="0 0 250.000000 272.000000"
 preserveAspectRatio="xMidYMid meet">

<g transform="translate(0.000000,272.000000) scale(0.100000,-0.100000)"
fill="#000000" stroke="none">
<path d="M1170 2661 c-321 -141 -702 -462 -902 -760 -66 -99 -148 -249 -148
-271 0 -6 62 -10 173 -10 l174 0 19 43 c34 75 133 215 216 302 128 136 285
254 460 349 l88 48 77 -42 c183 -98 342 -218 471 -355 83 -87 182 -227 216
-302 l19 -43 174 0 c111 0 173 4 173 10 0 22 -82 172 -148 271 -190 282 -517
567 -839 729 -128 65 -143 67 -223 31z m221 -45 c312 -157 647 -449 833 -726
46 -68 136 -228 136 -242 0 -5 -72 -8 -159 -8 l-159 0 -41 74 c-131 240 -410
493 -696 633 l-55 27 -55 -27 c-292 -143 -586 -414 -706 -649 l-29 -58 -160 0
c-88 0 -160 3 -160 8 0 14 90 174 136 242 187 279 516 565 839 730 123 62 144
62 276 -4z"/>
<path d="M1184 2581 c-103 -40 -219 -105 -325 -181 -65 -46 -100 -65 -114 -62
-18 5 -18 4 -6 -12 8 -9 12 -18 10 -19 -32 -23 -62 -37 -79 -37 -23 0 -27 -18
-5 -26 24 -10 17 -21 -15 -28 -21 -4 -37 -17 -51 -41 -12 -19 -27 -35 -35 -35
-20 0 -83 -59 -63 -60 9 0 24 9 34 20 25 27 38 25 31 -4 -3 -14 -2 -28 4 -31
14 -9 48 12 55 35 3 11 12 20 19 20 19 0 49 37 41 50 -4 7 -16 9 -27 7 -12 -4
-18 -1 -15 6 2 7 15 13 29 15 18 2 33 -6 57 -33 21 -25 38 -35 53 -33 19 3 17
8 -25 57 -26 30 -47 58 -47 62 0 13 41 38 54 33 6 -3 26 -24 45 -48 24 -31 39
-42 52 -39 16 5 12 13 -28 65 l-47 60 24 19 c82 65 94 69 64 25 -10 -17 -12
-26 -4 -31 14 -9 60 21 60 40 0 20 42 47 54 35 14 -14 -39 -68 -88 -90 -34
-16 -36 -19 -18 -25 13 -3 50 4 92 19 39 14 89 26 111 26 27 0 38 4 33 11 -4
8 -27 10 -65 6 -58 -5 -59 -5 -44 16 8 12 15 30 15 41 0 17 -5 18 -52 13 l-53
-6 40 25 c40 25 131 74 138 74 2 0 3 -10 3 -22 -1 -19 5 -24 32 -26 19 -2 44
4 59 13 33 22 45 9 14 -16 -32 -26 -102 -26 -126 1 -21 23 -35 26 -35 7 0 -23
36 -48 77 -54 70 -9 143 40 126 85 -8 19 -51 14 -83 -8 -30 -22 -48 -13 -27
13 7 9 36 18 73 22 l62 7 -5 -45 c-3 -25 0 -53 6 -63 9 -17 10 -15 11 12 0 33
14 56 44 72 18 9 18 10 -6 26 -28 18 -59 21 -107 11 -24 -6 -32 -5 -27 3 7 12
63 27 86 23 39 -7 120 -51 120 -66 0 -9 -11 -37 -24 -63 -22 -45 -24 -72 -5
-72 5 0 23 28 40 63 17 34 33 64 35 66 9 10 203 -121 204 -138 0 -10 -7 -8
-23 7 -13 12 -27 22 -31 22 -5 0 -24 14 -43 30 -36 32 -73 39 -92 16 -17 -20
1 -51 42 -76 40 -25 47 -25 47 -1 0 26 -25 44 -50 36 -23 -7 -28 12 -5 21 20
8 62 -20 70 -46 5 -14 12 -19 24 -15 35 11 42 -18 14 -58 -17 -24 -23 -42 -18
-54 6 -16 10 -14 33 16 68 88 68 88 91 67 29 -26 27 -41 -14 -89 -19 -22 -35
-46 -35 -53 0 -22 18 -25 32 -6 7 11 28 36 46 56 31 36 34 37 55 22 47 -32
162 -145 155 -151 -4 -4 -35 20 -68 54 -62 62 -88 73 -110 46 -16 -20 -5 -49
32 -80 22 -19 34 -23 42 -15 15 15 -5 44 -33 48 -22 3 -28 17 -12 26 14 9 59
-32 63 -57 2 -16 9 -21 24 -19 35 5 36 -25 3 -63 -20 -23 -29 -41 -25 -52 6
-13 17 -7 61 37 48 48 56 52 71 39 16 -13 16 -12 6 8 -7 12 -59 66 -117 120
-60 56 -105 106 -105 117 0 14 -3 16 -14 7 -11 -9 -21 -5 -47 20 -36 34 -143
108 -221 153 -26 15 -50 37 -54 49 -6 19 -7 20 -19 3 -12 -16 -16 -16 -37 -2
-13 8 -46 24 -73 34 l-51 20 -70 -27z"/>
<path d="M324 1831 c3 -18 6 -51 6 -72 l0 -39 25 16 c15 10 38 15 60 12 43 -5
46 9 5 23 -35 13 -35 12 -14 44 18 28 14 31 -16 13 -16 -10 -23 -8 -46 12
l-27 25 7 -34z"/>
<path d="M2152 1837 c-19 -19 -25 -20 -43 -9 -27 17 -37 7 -16 -16 23 -25 22
-28 -13 -41 -40 -14 -38 -28 4 -23 21 2 44 -3 62 -14 l27 -18 -7 27 c-3 15 -2
46 4 68 14 50 10 55 -18 26z"/>
<path d="M1072 1732 c-21 -14 -24 -73 -8 -126 8 -27 13 -53 11 -57 -3 -4 -22
-10 -42 -14 -21 -4 -55 -16 -75 -28 -70 -39 -59 -84 27 -116 31 -12 65 -21 77
-21 17 0 19 -4 13 -22 -4 -13 -9 -50 -12 -83 -4 -51 -2 -63 15 -78 27 -25 62
-14 127 39 l53 42 28 -30 c44 -46 102 -72 130 -59 13 6 26 21 30 35 5 23 -6
98 -21 137 -4 12 7 19 55 32 58 17 110 53 110 77 0 24 -52 61 -110 77 -54 15
-61 19 -55 37 14 48 17 124 6 144 -22 41 -78 27 -143 -36 l-38 -36 -27 26
c-60 56 -119 80 -151 60z m71 -13 c12 -6 38 -27 59 -46 l36 -35 -26 -38 c-22
-31 -35 -39 -71 -44 -52 -7 -56 -3 -71 70 -18 87 11 125 73 93z m281 -22 c7
-19 6 -44 -4 -85 l-15 -57 -45 4 c-36 2 -50 9 -72 34 -15 18 -27 38 -28 44 0
7 23 31 52 53 61 49 97 51 112 7z m-149 -103 c9 -14 14 -28 12 -30 -3 -3 -24
-4 -47 -2 l-42 3 22 28 c27 34 33 34 55 1z m-107 -51 c-35 -73 -39 -76 -56
-38 -15 33 -15 33 6 38 29 8 54 7 50 0z m170 -43 l25 -45 -29 -47 c-29 -48
-29 -48 -84 -48 -54 0 -55 1 -82 44 -34 53 -34 57 -3 107 l26 40 61 -3 c61 -3
61 -3 86 -48z m55 44 c7 -7 -12 -64 -22 -64 -7 0 -41 53 -41 64 0 8 55 8 63 0z
m-289 -48 c16 -41 16 -46 0 -80 -20 -41 -36 -44 -106 -20 -109 37 -97 89 32
129 25 7 48 14 51 14 4 1 14 -19 23 -43z m384 28 c65 -21 101 -56 82 -79 -19
-22 -79 -52 -121 -60 -34 -6 -36 -5 -54 34 -17 40 -17 42 0 81 20 45 24 46 93
24z m-318 -156 c0 -10 4 -18 9 -18 5 0 21 -16 36 -36 l27 -35 -23 -26 c-30
-32 -68 -59 -95 -67 -47 -15 -68 50 -43 137 9 34 13 37 47 39 l37 1 -33 4
c-27 4 -32 8 -27 21 4 9 10 26 13 36 5 18 7 17 29 -10 12 -16 23 -37 23 -46z
m218 47 c18 -39 15 -45 -24 -45 -20 0 -34 3 -32 8 35 72 39 75 56 37z m31 -87
c22 -72 23 -103 3 -128 -17 -21 -22 -22 -48 -12 -16 7 -49 30 -74 51 l-44 38
33 41 c29 38 37 42 76 42 40 0 44 -2 54 -32z m-129 16 c0 -3 -8 -17 -19 -30
l-18 -23 -22 23 c-29 31 -27 36 19 36 22 0 40 -3 40 -6z"/>
<path d="M70 1493 c-102 -331 -40 -672 162 -888 117 -125 234 -193 418 -243
95 -26 97 -26 557 -30 393 -3 476 -1 550 13 347 63 574 246 672 540 67 202 67
393 1 608 l-21 67 -176 0 -175 0 6 -22 c74 -256 29 -514 -114 -658 -61 -60
-145 -110 -231 -134 -44 -13 -95 -16 -247 -14 l-191 3 355 110 c308 96 388
125 343 125 -6 0 -119 -34 -251 -76 -132 -41 -242 -73 -244 -71 -2 2 104 43
236 92 218 80 276 105 238 105 -7 0 -121 -40 -253 -90 -131 -49 -241 -88 -242
-86 -2 1 105 49 237 105 132 57 240 107 240 112 0 5 -2 9 -5 9 -2 0 -109 -45
-237 -101 -128 -55 -240 -103 -248 -105 -8 -2 92 49 223 113 l239 118 -89 56
c-48 31 -94 59 -100 63 -8 4 -113 -41 -243 -104 l-230 -111 -230 111 c-130 63
-235 108 -243 104 -6 -4 -52 -32 -100 -63 l-89 -56 239 -118 c131 -64 231
-115 223 -113 -8 2 -120 50 -249 105 -128 56 -236 99 -239 96 -10 -9 5 -16
250 -121 125 -54 227 -99 225 -100 -1 -2 -111 37 -242 86 -132 49 -246 90
-253 90 -38 0 20 -25 238 -105 132 -49 238 -90 236 -92 -2 -2 -112 30 -244 71
-132 42 -245 76 -251 76 -46 0 36 -30 344 -125 l354 -110 -191 -3 c-213 -3
-255 4 -363 61 -229 121 -322 423 -229 745 l6 22 -175 0 -176 0 -21 -67z
m2168 -22 c15 0 50 4 77 9 28 4 52 6 54 4 2 -2 -8 -17 -23 -34 -14 -18 -26
-44 -26 -60 0 -15 -7 -34 -16 -41 -14 -11 -19 -10 -35 10 -23 28 -24 27 -33
-21 l-7 -38 82 0 c70 0 80 -2 69 -15 -6 -8 -34 -15 -63 -17 -29 -2 -52 -8 -55
-15 -2 -7 3 -13 12 -13 20 0 20 -7 0 -27 -18 -19 -15 -65 6 -71 13 -5 13 -3 1
11 -15 19 -8 47 13 47 37 0 18 -73 -21 -78 -28 -4 -47 30 -38 66 11 40 13 92
4 92 -4 0 -10 -20 -13 -45 -3 -25 -8 -65 -11 -89 l-6 -43 38 -7 c63 -10 113
-26 113 -36 0 -14 -38 -12 -95 5 -46 14 -51 14 -62 -2 -7 -9 -13 -23 -13 -30
0 -15 40 -33 72 -33 12 0 30 -7 40 -17 19 -17 25 -68 8 -78 -6 -3 -10 5 -10
19 0 28 -25 46 -64 46 -14 0 -31 9 -38 19 -13 18 -17 13 -52 -55 -37 -72 -38
-76 -20 -89 18 -13 20 -10 27 35 10 60 30 70 66 31 14 -15 36 -31 49 -35 24
-8 30 -26 9 -26 -7 0 -29 9 -50 19 -20 10 -39 15 -42 11 -3 -5 -3 -27 1 -49 6
-35 4 -41 -11 -41 -10 0 -33 11 -51 25 -39 30 -40 30 -48 8 -5 -12 10 -34 51
-76 l58 -60 -33 7 c-19 3 -51 -1 -78 -10 -70 -24 -80 -15 -49 45 14 28 25 53
25 56 0 4 -21 -11 -47 -31 -27 -21 -50 -39 -52 -41 -2 -1 13 -31 33 -67 40
-72 41 -76 23 -76 -7 0 -27 29 -45 65 -29 58 -34 64 -51 55 -19 -10 -18 -13
15 -86 20 -42 34 -77 32 -79 -2 -2 -25 -1 -51 2 -57 7 -69 24 -37 58 24 25 22
51 -5 61 -24 10 -31 -4 -10 -20 23 -16 14 -46 -14 -46 -11 0 -23 -5 -26 -10
-3 -6 -16 -10 -27 -10 -18 0 -20 4 -15 36 6 35 5 36 -21 29 -15 -4 -28 -7 -28
-8 -1 -1 6 -39 16 -85 10 -45 16 -82 13 -82 -3 0 -16 11 -28 24 -13 14 -40 28
-61 32 -44 8 -67 22 -58 36 4 6 27 24 53 40 l46 30 -40 -6 c-22 -3 -52 -6 -67
-6 l-28 0 0 -85 c0 -47 -4 -85 -9 -85 -15 0 -21 29 -21 100 0 61 -2 68 -22 75
-20 6 -20 8 -5 12 9 2 17 13 17 23 0 26 38 50 78 50 33 0 98 -27 89 -37 -3 -2
-14 0 -25 6 -42 22 -112 7 -112 -24 0 -20 51 -19 141 1 38 9 76 13 83 11 8 -3
22 3 31 13 13 15 22 17 36 10 26 -15 31 -12 19 9 -13 26 -13 32 3 30 31 -4 41
1 29 13 -20 20 -14 48 17 79 24 23 38 29 73 28 44 -1 43 -3 -5 -13 -15 -4 -36
-15 -47 -26 -24 -24 -26 -60 -5 -60 22 0 147 127 179 183 33 58 78 177 66 177
-5 0 -2 12 5 28 20 40 28 185 16 279 -6 46 -7 91 -3 100 6 16 7 15 10 -4 3
-18 10 -23 30 -22z m-1917 -1 c28 0 51 -58 40 -97 -11 -38 -41 -96 -47 -90 -2
2 3 20 11 40 20 48 19 92 -2 112 -16 16 -17 16 -26 -6 -15 -40 -1 -295 21
-371 11 -37 16 -71 13 -74 -3 -4 2 -4 12 -1 14 5 17 3 13 -11 -6 -18 59 -131
83 -146 6 -4 11 -14 11 -23 0 -13 -3 -13 -16 -3 -13 11 -24 5 -75 -46 -32 -32
-59 -56 -59 -53 0 2 9 22 20 44 11 22 20 49 20 61 0 19 -5 22 -27 21 -25 -2
-28 1 -28 28 0 23 5 31 22 33 28 4 57 -38 51 -73 -6 -29 -1 -31 24 -8 24 21
23 23 -14 85 -18 29 -33 54 -34 56 -1 2 -34 -13 -73 -32 -62 -32 -71 -34 -71
-18 0 13 17 25 54 41 74 30 79 38 62 92 -8 24 -18 59 -23 78 -8 33 -9 34 -26
16 -16 -15 -16 -19 -4 -34 30 -34 38 -60 27 -82 -6 -11 -19 -19 -28 -17 -9 2
-23 -3 -30 -12 -11 -13 -14 -12 -32 9 -21 25 -25 48 -11 70 6 9 2 20 -10 32
-26 26 -25 83 1 109 30 30 90 51 90 32 0 -4 -13 -13 -29 -19 -42 -16 -67 -57
-53 -88 17 -38 29 -30 28 18 -1 42 -1 42 34 41 35 -1 35 -1 32 38 l-4 38 -79
0 c-43 0 -79 3 -79 8 0 4 13 15 29 24 20 11 33 29 40 56 12 44 35 70 46 52 4
-6 15 -35 26 -63 l18 -52 1 62 c0 34 3 68 6 76 5 13 -9 17 -74 22 -65 6 -79
10 -75 22 6 15 39 14 124 -3 21 -4 28 0 34 18 6 19 8 20 12 6 2 -10 13 -18 24
-18z m2041 -82 c-16 -16 -37 4 -28 28 6 16 8 16 23 1 13 -13 15 -19 5 -29z
m-1348 -297 l226 -110 0 -90 0 -90 -227 111 c-126 61 -263 127 -307 147 l-79
37 79 52 c44 28 80 51 81 52 0 0 103 -49 227 -109z m778 57 l81 -52 -79 -37
c-44 -20 -181 -86 -306 -147 l-228 -111 0 90 0 90 223 109 c122 60 223 109
225 109 2 1 39 -22 84 -51z m-1279 -481 c2 -44 7 -61 27 -82 24 -26 60 -31 67
-9 2 6 -6 14 -17 17 -33 9 -22 43 13 39 30 -3 39 21 11 32 -26 10 -44 7 -44
-8 0 -23 -20 -30 -38 -13 -13 13 -13 19 -2 31 19 24 83 20 106 -5 18 -20 18
-22 1 -51 -9 -16 -15 -34 -12 -39 10 -15 -15 -49 -35 -49 -72 0 -113 73 -94
169 9 44 16 32 17 -32z m737 5 c47 -26 50 -45 3 -21 -20 10 -47 19 -58 19 -23
0 -65 -26 -65 -41 0 -5 61 -9 144 -9 86 0 147 -4 151 -10 4 -6 -17 -10 -56
-10 -62 0 -62 0 -44 -20 10 -12 25 -18 33 -15 20 7 52 -13 52 -34 0 -24 -25
-45 -46 -37 -20 8 -12 31 10 30 9 -1 15 3 13 9 -5 17 -21 18 -41 4 -15 -11
-16 -18 -8 -34 26 -48 -54 -78 -99 -37 -26 23 -62 91 -56 107 2 7 13 -6 25
-29 25 -50 42 -64 78 -67 19 -1 29 3 32 14 2 11 -3 16 -15 15 -12 0 -18 6 -18
19 0 13 6 20 18 19 19 -2 23 11 7 21 -20 12 -48 -5 -43 -25 4 -15 0 -20 -15
-20 -32 0 -35 28 -5 56 l27 25 -64 -3 -65 -3 -5 -85 c-6 -97 -18 -89 -22 15
-3 62 -5 70 -23 70 -18 0 -20 -8 -23 -80 -3 -75 -1 -82 23 -105 34 -32 32 -46
-3 -22 -20 15 -32 18 -45 11 -22 -13 -57 -2 -57 16 0 17 30 34 49 27 26 -9 5
23 -25 38 -16 8 -40 21 -53 29 l-25 14 29 23 c21 17 25 24 15 28 -8 2 -24 7
-35 11 -11 3 -22 5 -24 3 -2 -2 -3 -40 -2 -85 2 -86 -6 -101 -33 -62 -10 14
-32 25 -68 31 -29 5 -61 17 -70 25 -20 17 -24 58 -8 68 6 3 10 -3 10 -13 0
-26 16 -38 70 -52 25 -7 51 -17 58 -22 9 -8 12 -1 12 30 0 51 -12 59 -50 32
-32 -23 -75 -21 -52 2 17 17 15 28 -6 28 -28 0 -34 11 -15 32 23 25 81 24 110
-4 l23 -21 1 34 c0 19 3 28 6 22 3 -9 34 -13 104 -13 81 0 97 3 93 14 -3 8 4
24 15 35 27 27 84 28 131 3z"/>
<path d="M2238 1443 c-12 -3 -18 -14 -18 -31 1 -26 1 -26 15 -8 14 19 15 19
35 1 22 -20 21 -21 38 18 11 26 11 27 -21 26 -17 -1 -40 -3 -49 -6z"/>
<path d="M2060 734 c-6 -14 -10 -26 -10 -28 0 -1 16 0 35 2 40 5 43 12 17 35
-25 23 -31 21 -42 -9z"/>
<path d="M1896 572 c-3 -6 -1 -14 5 -17 14 -9 20 -2 10 14 -6 8 -11 9 -15 3z"/>
<path d="M1671 554 l-23 -17 32 -14 c18 -7 34 -12 36 -11 5 6 -8 58 -15 58 -4
0 -17 -7 -30 -16z"/>
<path d="M188 1320 l-17 -30 29 0 c32 0 33 2 24 38 -8 29 -16 28 -36 -8z"/>
<path d="M220 1156 c0 -8 4 -17 9 -20 11 -7 33 18 24 27 -12 12 -33 7 -33 -7z"/>
<path d="M198 1056 c-11 -26 -5 -56 12 -56 6 0 8 10 4 24 -8 32 11 41 30 14
21 -30 33 -15 12 17 -21 32 -43 32 -58 1z"/>
<path d="M810 1153 c0 -4 11 -13 25 -20 14 -6 23 -7 19 -2 -8 13 -44 31 -44
22z"/>
<path d="M870 1123 c0 -4 11 -13 25 -20 14 -6 23 -7 19 -2 -8 13 -44 31 -44
22z"/>
<path d="M728 1098 c12 -6 22 -15 22 -20 0 -4 6 -8 13 -8 6 1 1 10 -12 20 -13
11 -28 20 -35 19 -6 0 -1 -5 12 -11z"/>
<path d="M822 1096 c7 -8 15 -12 17 -11 5 6 -10 25 -20 25 -5 0 -4 -6 3 -14z"/>
<path d="M930 1097 c0 -3 12 -12 26 -22 15 -9 23 -12 20 -6 -7 11 -46 35 -46
28z"/>
<path d="M780 1070 c0 -6 7 -10 15 -10 8 0 15 2 15 4 0 2 -7 6 -15 10 -8 3
-15 1 -15 -4z"/>
<path d="M882 1066 c7 -8 15 -12 17 -11 5 6 -10 25 -20 25 -5 0 -4 -6 3 -14z"/>
<path d="M990 1067 c0 -3 12 -12 26 -22 15 -9 23 -12 20 -6 -7 11 -46 35 -46
28z"/>
<path d="M948 1038 c12 -6 22 -15 22 -20 0 -4 9 -8 19 -8 11 0 26 -7 35 -15
16 -17 30 -20 21 -5 -6 10 -102 60 -113 59 -4 0 3 -5 16 -11z"/>
<path d="M1057 1029 c7 -7 15 -10 18 -7 3 3 -2 9 -12 12 -14 6 -15 5 -6 -5z"/>
<path d="M1105 1000 c11 -5 27 -9 35 -9 9 0 8 4 -5 9 -11 5 -27 9 -35 9 -9 0
-8 -4 5 -9z"/>
<path d="M947 989 c7 -7 15 -10 18 -7 3 3 -2 9 -12 12 -14 6 -15 5 -6 -5z"/>
<path d="M1060 983 c0 -4 11 -13 25 -20 14 -6 23 -7 19 -2 -8 13 -44 31 -44
22z"/>
<path d="M1007 955 c3 -8 9 -12 14 -9 12 7 11 11 -5 17 -10 4 -13 1 -9 -8z"/>
<path d="M1188 963 c7 -3 16 -2 19 1 4 3 -2 6 -13 5 -11 0 -14 -3 -6 -6z"/>
<path d="M1120 950 c0 -5 7 -10 15 -10 8 0 15 -4 15 -10 0 -5 5 -10 11 -10 14
0 2 18 -22 30 -13 7 -19 7 -19 0z"/>
<path d="M1059 929 c14 -5 30 -13 36 -17 6 -4 2 1 -8 11 -11 9 -27 17 -36 16
-10 0 -7 -4 8 -10z"/>
<path d="M1180 922 c0 -6 9 -12 20 -15 11 -3 20 -3 20 -1 0 2 -9 8 -20 14 -11
6 -20 7 -20 2z"/>
<path d="M1120 907 c0 -3 12 -12 26 -22 15 -9 23 -12 20 -6 -7 11 -46 35 -46
28z"/>
<path d="M1180 872 c0 -6 9 -12 20 -15 11 -3 20 -3 20 -1 0 2 -9 8 -20 14 -11
6 -20 7 -20 2z"/>
<path d="M1664 1145 c-18 -14 -18 -14 4 -8 12 3 22 9 22 14 0 12 -3 11 -26 -6z"/>
<path d="M1662 1101 c-40 -21 -78 -43 -84 -49 -6 -6 23 6 64 27 42 22 78 38
80 36 2 -2 9 3 16 11 19 21 4 16 -76 -25z"/>
<path d="M1615 1120 c-3 -5 -1 -10 4 -10 6 0 11 5 11 10 0 6 -2 10 -4 10 -3 0
-8 -4 -11 -10z"/>
<path d="M1749 1089 l-24 -20 28 17 c15 9 27 18 27 20 0 8 -8 4 -31 -17z"/>
<path d="M1694 1065 c-18 -14 -18 -14 4 -8 12 3 22 9 22 14 0 12 -3 11 -26 -6z"/>
<path d="M1529 1029 l-24 -20 28 17 c15 9 27 18 27 20 0 8 -8 4 -31 -17z"/>
<path d="M1595 1019 c-11 -16 -1 -19 13 -3 7 8 8 14 3 14 -5 0 -13 -5 -16 -11z"/>
<path d="M1469 999 l-24 -20 28 17 c15 9 27 18 27 20 0 8 -8 4 -31 -17z"/>
<path d="M1358 993 c7 -3 16 -2 19 1 4 3 -2 6 -13 5 -11 0 -14 -3 -6 -6z"/>
<path d="M1500 973 c-37 -21 -40 -24 -15 -18 16 3 32 10 35 14 3 4 14 13 25
19 11 6 16 11 10 11 -5 0 -30 -12 -55 -26z"/>
<path d="M1409 969 l-24 -20 28 17 c15 9 27 18 27 20 0 8 -8 4 -31 -17z"/>
<path d="M1294 965 c-18 -14 -18 -14 4 -8 12 3 22 9 22 14 0 12 -3 11 -26 -6z"/>
<path d="M1354 945 c-18 -14 -18 -14 4 -8 12 3 22 9 22 14 0 12 -3 11 -26 -6z"/>
<path d="M1294 915 c-18 -14 -18 -14 4 -8 12 3 22 9 22 14 0 12 -3 11 -26 -6z"/>
<path d="M1408 923 c7 -3 16 -2 19 1 4 3 -2 6 -13 5 -11 0 -14 -3 -6 -6z"/>
<path d="M1315 879 c-4 -6 -5 -12 -2 -15 2 -3 7 2 10 11 7 17 1 20 -8 4z"/>
<path d="M807 585 c6 -18 34 -16 41 3 2 7 -6 12 -22 12 -19 0 -24 -4 -19 -15z"/>
<path d="M1000 594 c0 -4 8 -13 18 -20 16 -13 16 -15 -6 -32 l-24 -18 26 -17
c14 -9 28 -17 31 -17 3 0 5 25 5 55 0 52 -1 55 -25 55 -14 0 -25 -3 -25 -6z"/>
<path d="M1015 420 c-3 -5 -1 -10 4 -10 6 0 11 5 11 10 0 6 -2 10 -4 10 -3 0
-8 -4 -11 -10z"/>
<path d="M1110 165 l0 -115 119 0 c69 0 122 4 126 10 4 6 -35 10 -109 10
l-116 0 0 90 0 90 160 0 c136 0 160 -2 160 -15 0 -10 -10 -15 -33 -15 -18 0
-38 -5 -45 -12 -9 -9 -15 -9 -24 0 -7 7 -43 12 -90 12 l-78 0 0 -50 0 -50 50
0 c28 0 50 5 50 10 0 6 -18 10 -40 10 -36 0 -40 3 -40 25 0 24 2 25 70 25 l70
0 0 -30 c0 -20 5 -30 15 -30 10 0 15 10 15 30 0 28 2 30 40 30 l40 0 0 -65 c0
-37 4 -65 10 -65 6 0 10 43 10 110 l0 110 -180 0 -180 0 0 -115z"/>
<path d="M1520 270 c0 -6 52 -10 136 -10 124 0 135 -2 132 -17 -3 -16 -19 -18
-136 -21 l-132 -3 0 -79 0 -80 145 0 145 0 0 50 0 50 -105 0 c-87 0 -105 -3
-105 -15 0 -12 17 -15 90 -15 81 0 90 -2 90 -19 0 -22 -40 -31 -152 -31 l-78
0 0 60 0 60 130 0 130 0 0 40 0 40 -145 0 c-90 0 -145 -4 -145 -10z"/>
<path d="M685 160 c0 -60 3 -110 8 -110 4 0 7 45 7 100 l0 100 170 0 c107 0
170 4 170 10 0 6 -66 10 -177 10 l-178 0 0 -110z"/>
<path d="M762 188 c2 -17 14 -24 53 -33 70 -16 117 -42 113 -63 -3 -14 -17
-18 -81 -20 -104 -4 -99 -22 6 -22 l83 0 17 35 c9 19 23 35 31 35 30 0 46 -13
46 -36 0 -13 5 -24 10 -24 6 0 10 32 10 75 l0 75 -146 0 c-144 0 -145 0 -142
-22z m268 -12 c0 -49 -47 -60 -127 -30 -72 28 -56 44 42 44 67 0 85 -3 85 -14z"/>
</g>
</svg>
